#!OML:ASF H:\Terrain\Patient Classification 1\Walking\liu\liu.ASF
:FULLY-SPECIFIED
:DEGREES
253
root 8.98292 17.0453 20.4976 9.81685 1.38795 -0.950284
lowerback -2.96463 -1.45922 -2.17978
upperback 0.911407 -1.95934 3.75858
thorax 2.81063 -1.05243 5.00953
lowerneck -18.2869 -2.73266 -12.0989
upperneck 15.3948 -2.70884 11.4904
head 8.09826 -0.870518 5.56731
rclavicle -2.78299e-015 5.56597e-015
rhumerus -36.4679 9.47205 -82.0958
rradius 24.211
rwrist -11.7579
rhand -37.1569 -24.5148
rfingers 7.12502
rthumb -10.226 -54.2462
lclavicle -2.78299e-015 5.56597e-015
lhumerus -25.9829 -24.792 95.5036
lradius 37.6414
lwrist 12.2865
lhand -20.3097 -27.1494
lfingers 7.12502
lthumb 6.04084 2.7445
rfemur -23.7196 2.77212 26.5653
rtibia 37.887
rfoot -21.3067 2.46788
rtoes -18.774
lfemur -30.1037 9.46252 -20.4021
ltibia 69.7243
lfoot -13.9948 11.1156
ltoes -14.3143
254
root 8.98584 17.0488 20.7228 9.97028 0.993967 -0.897833
lowerback -2.57513 -1.24237 -2.3497
upperback 0.39543 -1.65433 3.74464
thorax 2.03106 -0.878346 5.1205
lowerneck -17.3146 -2.67827 -12.2727
upperneck 15.4454 -2.71606 11.5587
head 7.94735 -0.90446 5.61421
rclavicle 1.30204e-014 -2.70347e-014
rhumerus -36.3308 11.1431 -83.4136
rradius 25.6801
rwrist -12.6409
rhand -36.6495 -24.3633
rfingers 7.12502
rthumb -9.7365 -54.1182
lclavicle 1.30204e-014 -2.70347e-014
lhumerus -28.3344 -23.5526 96.2111
lradius 37.1789
lwrist 12.1738
lhand -20.2727 -26.6791
lfingers 7.12502
lthumb 6.07659 3.21373
rfemur -22.707 3.17934 26.6204
rtibia 37.4051
rfoot -21.1996 2.14039
rtoes -16.3345
lfemur -32.0316 9.24152 -20.7874
ltibia 68.6322
lfoot -15.9345 10.8626
ltoes -9.31949
255
root 8.98952 17.0659 20.9504 10.1189 0.475452 -0.86831
lowerback -2.12299 -0.953261 -2.44659
upperback -0.430149 -1.25225 3.73207
thorax 0.885299 -0.639572 5.19351
lowerneck -15.2616 -2.58191 -12.8445
upperneck 15.2239 -2.73629 11.9142
head 7.52613 -0.970919 5.81365
rclavicle -4.57205e-015 -2.54444e-014
rhumerus -36.7598 12.535 -84.6065
rradius 26.9739
rwrist -12.9785
rhand -35.141 -25.4062
rfingers 7.12502
rthumb -8.28082 -55.2239
lclavicle -4.57205e-015 -2.54444e-014
lhumerus -31.5379 -22.6304 97.2968
lradius 36.7832
lwrist 12.5107
lhand -20.6349 -26.5767
lfingers 7.12502
lthumb 5.7269 3.32592
rfemur -21.6869 3.3463 26.7419
rtibia 36.9267
rfoot -21.2197 1.45792
rtoes -17.3585
lfemur -33.8388 9.05994 -21.0959
ltibia 67.3065
lfoot -16.682 10.9874
ltoes -9.06625
256
root 8.99479 17.0811 21.1905 10.1547 -0.114357 -0.79468
lowerback -1.84205 -0.49972 -2.48795
upperback -1.40804 -0.629243 3.7237
thorax -0.345994 -0.283122 5.23477
lowerneck -12.2043 -2.62057 -14.3846
upperneck 14.6963 -3.0329 13.161
head 6.89427 -1.184 6.45071
rclavicle 3.77691e-015 -1.19271e-014
rhumerus -37.7338 14.2692 -85.8478
rradius 28.179
rwrist -13.764
rhand -33.063 -27.5748
rfingers 7.12502
rthumb -6.27499 -57.4618
lclavicle 3.77691e-015 -1.19271e-014
lhumerus -35.278 -21.9322 98.8269
lradius 36.3392
lwrist 12.8437
lhand -21.0517 -26.4454
lfingers 7.12502
lthumb 5.32439 3.46771
rfemur -20.4486 3.56277 26.7565
rtibia 36.2991
rfoot -21.5054 0.979256
rtoes -17.8704
lfemur -35.2385 8.99908 -21.4679
ltibia 65.653
lfoot -16.9036 11.7268
ltoes -10.8885
257
root 8.99685 17.0947 21.4292 10.1856 -0.502929 -0.964645
lowerback -2.45542 -0.387467 -2.58893
upperback 0.180309 -0.498629 3.62941
thorax 1.61882 -0.288307 5.18927
lowerneck -17.4984 -3.17746 -13.0392
upperneck 16.1068 -3.38789 12.3532
head 8.31695 -1.19246 5.96697
rclavicle -7.95139e-015 2.8625e-014
rhumerus -33.1496 16.6143 -86.7376
rradius 29.0712
rwrist -14.9728
rhand -31.7825 -28.5889
rfingers 7.12502
rthumb -5.03873 -58.509
lclavicle -7.95139e-015 2.8625e-014
lhumerus -33.1967 -21.4455 97.2054
lradius 35.4459
lwrist 13.225
lhand -21.1261 -26.1586
lfingers 7.12502
lthumb 5.25258 3.75631
rfemur -19.0223 4.04876 26.9967
rtibia 35.4499
rfoot -21.8852 0.657097
rtoes -16.5253
lfemur -36.5657 8.76564 -21.4202
ltibia 63.6988
lfoot -17.2984 12.1647
ltoes -9.50891
258
root 9.00051 17.1218 21.6796 10.1209 -0.701795 -1.58083
lowerback -2.66382 -0.129112 -1.93042
upperback 0.424895 -0.179163 3.72397
thorax 1.95079 -0.13282 4.9262
lowerneck -19.2653 -3.76809 -12.7327
upperneck 17.5791 -4.08988 11.8853
head 9.21737 -1.50658 5.71052
rclavicle -9.44227e-015 1.98785e-014
rhumerus -31.805 17.9574 -87.3319
rradius 30.4723
rwrist -15.6544
rhand -31.1387 -27.6821
rfingers 7.12502
rthumb -4.41707 -57.6161
lclavicle -9.44227e-015 1.98785e-014
lhumerus -34.2365 -20.9566 97.1649
lradius 34.7678
lwrist 13.2306
lhand -20.6774 -25.9061
lfingers 7.12502
lthumb 5.68578 3.99757
rfemur -17.398 4.31311 27.7727
rtibia 34.4649
rfoot -22.0252 0.322267
rtoes -17.7162
lfemur -37.7032 8.38362 -20.7171
ltibia 61.4552
lfoot -17.8056 12.4652
ltoes -8.53416
259
root 9.00561 17.1472 21.9425 9.91648 -1.06658 -1.84228
lowerback -2.61118 0.266739 -1.62905
upperback 0.341628 0.340544 3.81443
thorax 1.78439 0.134752 4.86977
lowerneck -18.4745 -3.81015 -12.9706
upperneck 17.6331 -4.11829 11.604
head 9.09506 -1.58811 5.64308
rclavicle 4.67144e-015 3.02153e-014
rhumerus -31.2712 19.1975 -87.7133
rradius 31.9216
rwrist -16.499
rhand -30.4233 -27.9412
rfingers 7.12502
rthumb -3.72624 -57.8884
lclavicle 4.67144e-015 3.02153e-014
lhumerus -36.092 -20.42 97.649
lradius 34.1591
lwrist 12.8659
lhand -20.0795 -25.3643
lfingers 7.12502
lthumb 6.26309 4.52307
rfemur -15.6206 4.29565 28.172
rtibia 33.3525
rfoot -22.4733 0.490067
rtoes -21.0881
lfemur -38.3252 8.07156 -20.4018
ltibia 58.9028
lfoot -18.502 12.8403
ltoes -8.66979
260
root 9.00686 17.1646 22.1919 9.83536 -1.64851 -1.68676
lowerback -2.61574 0.492672 -1.9446
upperback 0.60267 0.650388 3.65151
thorax 2.02438 0.278944 4.8945
lowerneck -18.4183 -3.5924 -12.524
upperneck 17.0236 -3.90392 11.6008
head 8.83766 -1.45533 5.57542
rclavicle -7.15625e-015 -1.82882e-014
rhumerus -29.7687 21.1802 -88.4675
rradius 33.2373
rwrist -17.6651
rhand -29.9877 -29.2009
rfingers 7.12502
rthumb -3.30555 -59.155
lclavicle -7.15625e-015 -1.82882e-014
lhumerus -37.0907 -19.286 97.0666
lradius 33.5618
lwrist 12.2853
lhand -20.0153 -25.0433
lfingers 7.12502
lthumb 6.32505 4.84224
rfemur -13.9579 4.53356 28.0774
rtibia 32.1267
rfoot -23.8408 1.29841
rtoes -25.7242
lfemur -38.8909 7.81777 -20.5096
ltibia 56.1124
lfoot -19.1291 12.926
ltoes -6.35925
261
root 9.01524 17.19 22.4322 10.088 -2.06413 -1.88279
lowerback -3.07634 0.668324 -1.84076
upperback 1.10708 0.871983 3.62522
thorax 2.78412 0.369119 4.83342
lowerneck -20.8447 -4.09422 -11.7945
upperneck 17.8953 -4.46571 10.9995
head 9.62055 -1.66856 5.18801
rclavicle 2.18663e-015 3.26007e-014
rhumerus -27.5147 23.7734 -88.7694
rradius 34.4743
rwrist -19.1237
rhand -30.193 -28.9049
rfingers 7.12502
rthumb -3.50385 -58.8558
lclavicle 2.18663e-015 3.26007e-014
lhumerus -37.4307 -18.5784 96.4778
lradius 32.8546
lwrist 12.3235
lhand -20.3608 -25.3899
lfingers 7.12502
lthumb 5.99153 4.50536
rfemur -12.6329 4.64386 28.2728
rtibia 30.9077
rfoot -23.8242 1.54594
rtoes -26.6215
lfemur -39.9117 7.46769 -20.2408
ltibia 53.1919
lfoot -19.1018 13.3097
ltoes -5.59353
262
root 9.03045 17.2139 22.6876 10.2813 -2.26892 -2.29435
lowerback -3.54721 0.724284 -1.49139
upperback 1.36058 0.919749 3.7767
thorax 3.31042 0.384545 4.81045
lowerneck -21.1875 -4.0574 -11.8321
upperneck 17.7864 -4.35642 11.0062
head 9.63114 -1.61001 5.21091
rclavicle 5.76476e-015 1.27222e-014
rhumerus -25.8313 26.4802 -88.8693
rradius 35.8443
rwrist -20.3402
rhand -30.864 -27.2825
rfingers 7.12502
rthumb -4.15178 -57.2218
lclavicle 5.76476e-015 1.27222e-014
lhumerus -38.4409 -17.887 96.3379
lradius 32.1719
lwrist 12.8559
lhand -20.657 -25.8108
lfingers 7.12502
lthumb 5.70555 4.09241
rfemur -11.1896 4.52065 28.6825
rtibia 29.6843
rfoot -22.6894 1.15135
rtoes -25.4922
lfemur -40.7979 7.02696 -19.6999
ltibia 50.1404
lfoot -18.6971 14.0018
ltoes -6.91255
263
root 9.04041 17.2108 22.9428 10.293 -2.59688 -2.55712
lowerback -3.405 0.882641 -1.27511
upperback 0.861669 1.1315 3.88212
thorax 2.69597 0.511532 4.79702
lowerneck -19.6231 -3.93376 -12.3388
upperneck 17.7257 -4.25811 11.2326
head 9.33156 -1.61736 5.38722
rclavicle -7.95139e-016 -6.36111e-015
rhumerus -25.8594 28.2913 -89.4492
rradius 37.2248
rwrist -21.1288
rhand -31.7589 -25.4701
rfingers 7.12502
rthumb -5.01597 -55.3907
lclavicle -7.95139e-016 -6.36111e-015
lhumerus -41.0777 -16.7354 96.5184
lradius 31.6725
lwrist 12.7922
lhand -20.5347 -26.0247
lfingers 7.12502
lthumb 5.82356 3.87524
rfemur -9.55277 4.87565 28.9735
rtibia 28.3828
rfoot -21.1174 0.240649
rtoes -22.7085
lfemur -41.338 6.66417 -19.2178
ltibia 46.9633
lfoot -18.3736 14.5801
ltoes -8.75848
264
root 9.04484 17.2091 23.1918 10.4078 -3.09057 -2.88337
lowerback -2.97413 1.19299 -0.927892
upperback -0.590266 1.57547 3.99918
thorax 0.923099 0.785074 4.70343
lowerneck -15.2078 -3.58298 -12.8017
upperneck 17.4542 -4.07608 10.8295
head 8.41476 -1.72176 5.33123
rclavicle 2.38542e-015 0
rhumerus -28.1284 29.9122 -90.9246
rradius 38.6314
rwrist -22.1984
rhand -32.6433 -24.1476
rfingers 7.12502
rthumb -5.86979 -54.0463
lclavicle 2.38542e-015 0
lhumerus -45.6852 -15.2055 97.0712
lradius 31.3651
lwrist 12.0236
lhand -20.4245 -26.4407
lfingers 7.12502
lthumb 5.93003 3.45628
rfemur -8.03183 5.39557 29.2938
rtibia 26.9935
rfoot -19.9923 -0.389099
rtoes -20.5635
lfemur -41.8709 6.47885 -18.6609
ltibia 43.6853
lfoot -18.134 14.9947
ltoes -11.0589
265
root 9.05156 17.2256 23.4482 10.6148 -3.58125 -3.20137
lowerback -3.49122 1.39618 -0.718851
upperback 0.064405 1.81282 3.99063
thorax 1.87256 0.882714 4.61393
lowerneck -17.2676 -3.84559 -12.6921
upperneck 17.7312 -4.28929 11.0902
head 8.91445 -1.73546 5.38692
rclavicle -9.74045e-015 7.95139e-016
rhumerus -25.296 32.3572 -90.3971
rradius 39.6257
rwrist -23.4346
rhand -33.2362 -23.4575
rfingers 7.12502
rthumb -6.44228 -53.3396
lclavicle -9.74045e-015 7.95139e-016
lhumerus -45.6906 -14.38 96.0838
lradius 30.5917
lwrist 11.5595
lhand -19.9441 -26.1291
lfingers 7.12502
lthumb 6.39378 3.75439
rfemur -6.54844 5.44768 29.5351
rtibia 25.5196
rfoot -19.2706 -0.500158
rtoes -22.3027
lfemur -42.3901 6.24121 -18.0863
ltibia 40.3594
lfoot -17.9822 15.1873
ltoes -11.4577
266
root 9.06859 17.2288 23.711 10.8399 -4.04374 -3.45596
lowerback -3.89822 1.72807 -0.436571
upperback 0.396366 2.22565 4.03673
thorax 2.41715 1.08037 4.54623
lowerneck -18.6686 -4.1013 -12.8275
upperneck 18.199 -4.497 11.2288
head 9.36571 -1.79243 5.44751
rclavicle -1.37161e-014 -1.59028e-014
rhumerus -23.013 34.0336 -89.4411
rradius 40.6091
rwrist -23.8059
rhand -33.3412 -23.5702
rfingers 7.12502
rthumb -6.54363 -53.4491
lclavicle -1.37161e-014 -1.59028e-014
lhumerus -46.2237 -13.7009 95.4873
lradius 29.8018
lwrist 10.8538
lhand -18.6905 -24.8236
lfingers 7.12502
lthumb 7.60391 5.01967
rfemur -4.96375 5.18024 29.5871
rtibia 23.958
rfoot -18.3008 -0.0357781
rtoes -22.7274
lfemur -42.8965 5.90088 -17.5231
ltibia 37.0483
lfoot -17.7782 14.9999
ltoes -10.8863
